<svg width="20" height="20" fill="none" xmlns="http://www.w3.org/2000/svg"><g clip-path="url(#clip0)" fill-rule="evenodd" clip-rule="evenodd" fill="#6D7A86"><path d="M10 1.833A3.167 3.167 0 006.833 5v.833a3.167 3.167 0 006.334 0V5A3.167 3.167 0 0010 1.833zM4.833 5a5.167 5.167 0 0110.334 0v.833a5.167 5.167 0 01-10.334 0V5zM3.849 13.245c1.621-.442 3.872-.912 6.151-.912 2.28 0 4.53.47 6.152.912a4.325 4.325 0 013.181 4.178v2.744H.667v-2.744a4.326 4.326 0 013.182-4.178zM10 14.333c-2.03 0-4.09.423-5.625.842a2.326 2.326 0 00-1.708 2.248v.744h14.666v-.744c0-1.053-.7-1.974-1.707-2.248-1.536-.42-3.595-.842-5.626-.842z"/></g><defs><clipPath id="clip0"><path fill="#fff" d="M0 0h20v20H0z"/></clipPath></defs></svg>